<mxfile host="app.diagrams.net" agent="Mozilla/5.0 (Macintosh; Intel Mac OS X 10_15_7) AppleWebKit/537.36 (KHTML, like Gecko) Chrome/127.0.0.0 Safari/537.36" version="24.7.6">
  <diagram name="第 1 页" id="dp5hx1DgY4tsWoC5Lqza">
    <mxGraphModel dx="1044" dy="630" grid="1" gridSize="10" guides="1" tooltips="1" connect="1" arrows="1" fold="1" page="1" pageScale="1" pageWidth="2336" pageHeight="1654" math="0" shadow="0">
      <root>
        <mxCell id="0" />
        <mxCell id="1" parent="0" />
        <mxCell id="9MkhTOFPafs31ZeYN8UA-4" style="edgeStyle=orthogonalEdgeStyle;rounded=0;orthogonalLoop=1;jettySize=auto;html=1;exitX=0.5;exitY=1;exitDx=0;exitDy=0;" edge="1" parent="1" source="9MkhTOFPafs31ZeYN8UA-1">
          <mxGeometry relative="1" as="geometry">
            <mxPoint x="250" y="300" as="targetPoint" />
          </mxGeometry>
        </mxCell>
        <mxCell id="9MkhTOFPafs31ZeYN8UA-1" value="开始 reload 缓存" style="rounded=1;whiteSpace=wrap;html=1;fillColor=#99CCFF;" vertex="1" parent="1">
          <mxGeometry x="190" y="220" width="120" height="40" as="geometry" />
        </mxCell>
        <mxCell id="9MkhTOFPafs31ZeYN8UA-7" style="edgeStyle=orthogonalEdgeStyle;rounded=0;orthogonalLoop=1;jettySize=auto;html=1;exitX=0.5;exitY=1;exitDx=0;exitDy=0;" edge="1" parent="1" source="9MkhTOFPafs31ZeYN8UA-5" target="9MkhTOFPafs31ZeYN8UA-6">
          <mxGeometry relative="1" as="geometry" />
        </mxCell>
        <mxCell id="9MkhTOFPafs31ZeYN8UA-5" value="一次性查出所有特征" style="rounded=0;whiteSpace=wrap;html=1;" vertex="1" parent="1">
          <mxGeometry x="160" y="300" width="180" height="40" as="geometry" />
        </mxCell>
        <mxCell id="9MkhTOFPafs31ZeYN8UA-10" style="edgeStyle=orthogonalEdgeStyle;rounded=0;orthogonalLoop=1;jettySize=auto;html=1;exitX=0.5;exitY=1;exitDx=0;exitDy=0;entryX=0.5;entryY=0;entryDx=0;entryDy=0;" edge="1" parent="1" source="9MkhTOFPafs31ZeYN8UA-6" target="9MkhTOFPafs31ZeYN8UA-8">
          <mxGeometry relative="1" as="geometry" />
        </mxCell>
        <mxCell id="9MkhTOFPafs31ZeYN8UA-6" value="遍历特征列表" style="rounded=0;whiteSpace=wrap;html=1;" vertex="1" parent="1">
          <mxGeometry x="160" y="380" width="180" height="40" as="geometry" />
        </mxCell>
        <mxCell id="9MkhTOFPafs31ZeYN8UA-12" style="edgeStyle=orthogonalEdgeStyle;rounded=0;orthogonalLoop=1;jettySize=auto;html=1;exitX=1;exitY=0.5;exitDx=0;exitDy=0;entryX=0.5;entryY=0;entryDx=0;entryDy=0;" edge="1" parent="1" source="9MkhTOFPafs31ZeYN8UA-8" target="9MkhTOFPafs31ZeYN8UA-11">
          <mxGeometry relative="1" as="geometry" />
        </mxCell>
        <mxCell id="9MkhTOFPafs31ZeYN8UA-13" value="N" style="edgeLabel;html=1;align=center;verticalAlign=middle;resizable=0;points=[];" vertex="1" connectable="0" parent="9MkhTOFPafs31ZeYN8UA-12">
          <mxGeometry x="-0.4668" y="-2" relative="1" as="geometry">
            <mxPoint y="-2" as="offset" />
          </mxGeometry>
        </mxCell>
        <mxCell id="9MkhTOFPafs31ZeYN8UA-15" style="edgeStyle=orthogonalEdgeStyle;rounded=0;orthogonalLoop=1;jettySize=auto;html=1;exitX=0.5;exitY=1;exitDx=0;exitDy=0;" edge="1" parent="1" source="9MkhTOFPafs31ZeYN8UA-8" target="9MkhTOFPafs31ZeYN8UA-14">
          <mxGeometry relative="1" as="geometry" />
        </mxCell>
        <mxCell id="9MkhTOFPafs31ZeYN8UA-18" value="Y" style="edgeLabel;html=1;align=center;verticalAlign=middle;resizable=0;points=[];" vertex="1" connectable="0" parent="9MkhTOFPafs31ZeYN8UA-15">
          <mxGeometry x="-0.4831" relative="1" as="geometry">
            <mxPoint as="offset" />
          </mxGeometry>
        </mxCell>
        <mxCell id="9MkhTOFPafs31ZeYN8UA-8" value="是否基础特征" style="rhombus;whiteSpace=wrap;html=1;fillColor=#ffcccc;strokeColor=#36393d;" vertex="1" parent="1">
          <mxGeometry x="190" y="470" width="120" height="60" as="geometry" />
        </mxCell>
        <mxCell id="9MkhTOFPafs31ZeYN8UA-23" style="edgeStyle=orthogonalEdgeStyle;rounded=0;orthogonalLoop=1;jettySize=auto;html=1;exitX=0.5;exitY=1;exitDx=0;exitDy=0;entryX=0.5;entryY=0;entryDx=0;entryDy=0;" edge="1" parent="1" source="9MkhTOFPafs31ZeYN8UA-11" target="9MkhTOFPafs31ZeYN8UA-22">
          <mxGeometry relative="1" as="geometry" />
        </mxCell>
        <mxCell id="9MkhTOFPafs31ZeYN8UA-11" value="构建 processChancel" style="rounded=0;whiteSpace=wrap;html=1;" vertex="1" parent="1">
          <mxGeometry x="350" y="550" width="170" height="40" as="geometry" />
        </mxCell>
        <mxCell id="9MkhTOFPafs31ZeYN8UA-20" style="edgeStyle=orthogonalEdgeStyle;rounded=0;orthogonalLoop=1;jettySize=auto;html=1;exitX=0.5;exitY=1;exitDx=0;exitDy=0;entryX=0.5;entryY=0;entryDx=0;entryDy=0;" edge="1" parent="1" source="9MkhTOFPafs31ZeYN8UA-14" target="9MkhTOFPafs31ZeYN8UA-19">
          <mxGeometry relative="1" as="geometry" />
        </mxCell>
        <mxCell id="9MkhTOFPafs31ZeYN8UA-14" value="构建 feature&lt;div&gt;设置&amp;nbsp;&lt;span style=&quot;background-color: initial;&quot;&gt;processChancel&lt;/span&gt;&lt;/div&gt;" style="rounded=0;whiteSpace=wrap;html=1;" vertex="1" parent="1">
          <mxGeometry x="150" y="727" width="200" height="40" as="geometry" />
        </mxCell>
        <mxCell id="9MkhTOFPafs31ZeYN8UA-25" style="edgeStyle=orthogonalEdgeStyle;rounded=0;orthogonalLoop=1;jettySize=auto;html=1;exitX=0.5;exitY=1;exitDx=0;exitDy=0;entryX=0.5;entryY=0;entryDx=0;entryDy=0;" edge="1" parent="1" source="9MkhTOFPafs31ZeYN8UA-19" target="9MkhTOFPafs31ZeYN8UA-21">
          <mxGeometry relative="1" as="geometry" />
        </mxCell>
        <mxCell id="9MkhTOFPafs31ZeYN8UA-19" value="将 feature 放入FeatureCache" style="rounded=0;whiteSpace=wrap;html=1;" vertex="1" parent="1">
          <mxGeometry x="150" y="827" width="200" height="40" as="geometry" />
        </mxCell>
        <mxCell id="9MkhTOFPafs31ZeYN8UA-27" style="edgeStyle=orthogonalEdgeStyle;rounded=0;orthogonalLoop=1;jettySize=auto;html=1;exitX=0.5;exitY=1;exitDx=0;exitDy=0;entryX=0.5;entryY=0;entryDx=0;entryDy=0;" edge="1" parent="1" source="9MkhTOFPafs31ZeYN8UA-21" target="9MkhTOFPafs31ZeYN8UA-26">
          <mxGeometry relative="1" as="geometry" />
        </mxCell>
        <mxCell id="9MkhTOFPafs31ZeYN8UA-21" value="遍历 processChancel 列表&lt;div&gt;填充前置特征信息&lt;/div&gt;" style="rounded=0;whiteSpace=wrap;html=1;" vertex="1" parent="1">
          <mxGeometry x="150" y="927" width="200" height="40" as="geometry" />
        </mxCell>
        <mxCell id="9MkhTOFPafs31ZeYN8UA-24" style="edgeStyle=orthogonalEdgeStyle;rounded=0;orthogonalLoop=1;jettySize=auto;html=1;exitX=0.5;exitY=1;exitDx=0;exitDy=0;entryX=1;entryY=0.5;entryDx=0;entryDy=0;" edge="1" parent="1" source="9MkhTOFPafs31ZeYN8UA-22" target="9MkhTOFPafs31ZeYN8UA-14">
          <mxGeometry relative="1" as="geometry" />
        </mxCell>
        <mxCell id="9MkhTOFPafs31ZeYN8UA-22" value="将 processChancel 放入列表" style="rounded=0;whiteSpace=wrap;html=1;" vertex="1" parent="1">
          <mxGeometry x="350" y="640" width="170" height="40" as="geometry" />
        </mxCell>
        <mxCell id="9MkhTOFPafs31ZeYN8UA-26" value="结束" style="rounded=1;whiteSpace=wrap;html=1;fillColor=#99CCFF;" vertex="1" parent="1">
          <mxGeometry x="190" y="1020" width="120" height="40" as="geometry" />
        </mxCell>
        <mxCell id="9MkhTOFPafs31ZeYN8UA-33" style="edgeStyle=orthogonalEdgeStyle;rounded=0;orthogonalLoop=1;jettySize=auto;html=1;exitX=0.5;exitY=1;exitDx=0;exitDy=0;entryX=0.5;entryY=0;entryDx=0;entryDy=0;" edge="1" parent="1" source="9MkhTOFPafs31ZeYN8UA-28" target="9MkhTOFPafs31ZeYN8UA-29">
          <mxGeometry relative="1" as="geometry" />
        </mxCell>
        <mxCell id="9MkhTOFPafs31ZeYN8UA-28" value="开始 update 缓存" style="rounded=1;whiteSpace=wrap;html=1;fillColor=#99CCFF;" vertex="1" parent="1">
          <mxGeometry x="710" y="220" width="120" height="40" as="geometry" />
        </mxCell>
        <mxCell id="9MkhTOFPafs31ZeYN8UA-34" style="edgeStyle=orthogonalEdgeStyle;rounded=0;orthogonalLoop=1;jettySize=auto;html=1;exitX=0.5;exitY=1;exitDx=0;exitDy=0;entryX=0.5;entryY=0;entryDx=0;entryDy=0;" edge="1" parent="1" source="9MkhTOFPafs31ZeYN8UA-29" target="9MkhTOFPafs31ZeYN8UA-32">
          <mxGeometry relative="1" as="geometry" />
        </mxCell>
        <mxCell id="9MkhTOFPafs31ZeYN8UA-29" value="构建 feature" style="rounded=0;whiteSpace=wrap;html=1;" vertex="1" parent="1">
          <mxGeometry x="670" y="300" width="200" height="40" as="geometry" />
        </mxCell>
        <mxCell id="9MkhTOFPafs31ZeYN8UA-36" style="edgeStyle=orthogonalEdgeStyle;rounded=0;orthogonalLoop=1;jettySize=auto;html=1;exitX=0.5;exitY=1;exitDx=0;exitDy=0;" edge="1" parent="1" source="9MkhTOFPafs31ZeYN8UA-32" target="9MkhTOFPafs31ZeYN8UA-35">
          <mxGeometry relative="1" as="geometry" />
        </mxCell>
        <mxCell id="9MkhTOFPafs31ZeYN8UA-32" value="按特征code设置缓存" style="rounded=0;whiteSpace=wrap;html=1;" vertex="1" parent="1">
          <mxGeometry x="670" y="380" width="200" height="40" as="geometry" />
        </mxCell>
        <mxCell id="9MkhTOFPafs31ZeYN8UA-35" value="结束" style="rounded=1;whiteSpace=wrap;html=1;fillColor=#99CCFF;" vertex="1" parent="1">
          <mxGeometry x="710" y="460" width="120" height="40" as="geometry" />
        </mxCell>
        <mxCell id="9MkhTOFPafs31ZeYN8UA-37" value="laodByImpress" style="rounded=1;whiteSpace=wrap;html=1;fillColor=#99CCFF;" vertex="1" parent="1">
          <mxGeometry x="1240" y="200" width="120" height="40" as="geometry" />
        </mxCell>
      </root>
    </mxGraphModel>
  </diagram>
</mxfile>
